<svg width="75" height="50" viewBox="0 0 75 50" fill="none" xmlns="http://www.w3.org/2000/svg">
<path d="M66.6667 25V25C71.2691 25 75 28.731 75 33.3333V50H66.6667V25Z" fill="white"/>
<path d="M45.8333 8.33333C45.8333 3.73096 49.5643 0 54.1666 0V0V50H45.8333V8.33333Z" fill="white"/>
<path d="M16.6667 8.33333C16.6667 3.73096 20.3976 0 25 0V0V37.5H16.6667V8.33333Z" fill="white"/>
<path d="M0 24.9998C0 20.3975 3.73096 16.6665 8.33333 16.6665V16.6665V49.9998H0V24.9998Z" fill="white"/>
<rect x="25" y="29.1665" width="16.6667" height="8.33333" fill="white"/>
<path d="M33.3333 16.6665V16.6665C37.9357 16.6665 41.6666 20.3975 41.6666 24.9998V24.9998H33.3333V16.6665Z" fill="white"/>
<path d="M20.8333 41.6665H29.1666V49.9998V49.9998C24.5643 49.9998 20.8333 46.2689 20.8333 41.6665V41.6665Z" fill="white"/>
<path d="M33.3333 41.6665H41.6666V49.9998V49.9998C37.0643 49.9998 33.3333 46.2689 33.3333 41.6665V41.6665Z" fill="white"/>
<rect y="41.6665" width="16.6667" height="8.33333" fill="white"/>
<rect x="58.3333" y="25" width="8.33333" height="8.33333" fill="white"/>
<rect x="58.3333" y="41.6665" width="8.33333" height="8.33333" fill="white"/>
</svg>
